{"title":"Die Hard Quadrilogy (PSP + Ipod touch + Zune)","uid":5705346,"size":2030883236,"categoryP":"video","categoryS":"handheld","magnet":"?xt=urn:btih:60d2463543c7b4fcda3b12afb113243ab61f35c3&amp;dn=Die+Hard+Quadrilogy+%28PSP+%2B+Ipod+touch+%2B+Zune%29&amp;tr=udp%3A%2F%2Ftracker.openbittorrent.com%3A80&amp;tr=udp%3A%2F%2Fopen.demonii.com%3A1337&amp;tr=udp%3A%2F%2Ftracker.coppersurfer.tk%3A6969&amp;tr=udp%3A%2F%2Fexodus.desync.com%3A6969","seeders":1,"leechers":0,"uploader":"on.off.on","files":4,"time":1279666314,"description":"Die Hard Quadrilogy (PSP + Ipod touch + Zune)\n &lt;a href=&quot;\nhttp://www.imdb.com/title/tt0095016/&quot; rel=&quot;nofollow&quot; target=&quot;_NEW&quot;&gt;\nhttp://www.imdb.com/title/tt0095016/&lt;/a&gt;\n &lt;a href=&quot;\nhttp://www.imdb.com/title/tt0099423/&quot; rel=&quot;nofollow&quot; target=&quot;_NEW&quot;&gt;\nhttp://www.imdb.com/title/tt0099423/&lt;/a&gt;\n &lt;a href=&quot;\nhttp://www.imdb.com/title/tt0112864/&quot; rel=&quot;nofollow&quot; target=&quot;_NEW&quot;&gt;\nhttp://www.imdb.com/title/tt0112864/&lt;/a&gt;\n &lt;a href=&quot;\nhttp://www.imdb.com/title/tt0337978/&quot; rel=&quot;nofollow&quot; target=&quot;_NEW&quot;&gt;\nhttp://www.imdb.com/title/tt0337978/&lt;/a&gt;\n\n\nSource  :\n\nDie.Hard.1988.1080p.BluRay.DTS.x264-DON (without subs)\n\n^ps3^.d.i.e.h.a.r.d.2.720p (with English Hardsubs)\n\n\n^ps3^.d.i.e.h.a.r.d.3.720p (with English Hardsubs)\n\n\n^ps3^.d.i.e.h.a.r.d.4.720p (with English Hardsubs)\n\n\n\n\n\nInfo:\n\nID                               : 1\nFormat                           : AVC\nFormat/Info                      : Advanced Video Codec\nFormat profile                   : &lt;a class=&quot;__cf_email__&quot; href=&quot;/cdn-cgi/l/email-protection&quot; data-cfemail=&quot;12507361777e7b7c77525e203c22&quot;&gt;[email&amp;#160;protected]&lt;/a&gt;&lt;script cf-hash='f9e31' type=&quot;text/javascript&quot;&gt;\n/* &lt;![CDATA[ */!function(){try{var t=&quot;currentScript&quot;in document?document.currentScript:function(){for(var t=document.getElementsByTagName(&quot;script&quot;),e=t.length;e--;)if(t[e].getAttribute(&quot;cf-hash&quot;))return t[e]}();if(t&amp;&amp;t.previousSibling){var e,r,n,i,c=t.previousSibling,a=c.getAttribute(&quot;data-cfemail&quot;);if(a){for(e=&quot;&quot;,r=parseInt(a.substr(0,2),16),n=2;a.length-n;n+=2)i=parseInt(a.substr(n,2),16)^r,e+=String.fromCharCode(i);e=document.createTextNode(e),c.parentNode.replaceChild(e,c)}}}catch(u){}}();/* ]]&gt; */&lt;/script&gt;\nFormat settings, CABAC           : No\nFormat settings, ReFrames        : 3 frames\nCodec ID                         : avc1\nCodec ID/Info                    : Advanced Video Coding\nDuration                         : 2h 12mn\nBit rate mode                    : Variable\nBit rate                         : 390 Kbps\nWidth                            : 480 pixels\nHeight                           : 208 pixels\nDisplay aspect ratio             : 2.35:1\nFrame rate mode                  : Variable\nFrame rate                       : 23.976 fps\nMinimum frame rate               : 23.810 fps\nMaximum frame rate               : 24.390 fps\nColor space                      : YUV\nChroma subsampling               : 4:2:0\nBit depth                        : 8 bits\nScan type                        : Progressive\nBits/(Pixel*Frame)               : 0.163\nStream size                      : 369 MiB (75%)\nWriting library                  : x264 core 79\n\nID                               : 2\nFormat                           : AAC\nFormat/Info                      : Advanced Audio Codec\nFormat version                   : Version 4\nFormat profile                   : LC\nFormat settings, SBR             : No\nCodec ID                         : 40\nDuration                         : 2h 12mn\nBit rate mode                    : Variable\nBit rate                         : 128 Kbps\nMaximum bit rate                 : 207 Kbps\nChannel(s)                       : 2 channels\nChannel positions                : Front: L R\nSampling rate                    : 48.0 KHz\nStream size                      : 121 MiB (25%)\nLanguage                         : English\n\nScreens:\n &lt;a href=&quot;\nhttp://img831.imageshack.us/img831/7636/diehard1ooom4vthumbs201.jpg&quot; rel=&quot;nofollow&quot; target=&quot;_NEW&quot;&gt;\nhttp://img831.imageshack.us/img831/7636/diehard1ooom4vthumbs201.jpg&lt;/a&gt;\n &lt;a href=&quot;\nhttp://img696.imageshack.us/img696/7751/diehard2ooom4vthumbs201.jpg&quot; rel=&quot;nofollow&quot; target=&quot;_NEW&quot;&gt;\nhttp://img696.imageshack.us/img696/7751/diehard2ooom4vthumbs201.jpg&lt;/a&gt;\n &lt;a href=&quot;\nhttp://img717.imageshack.us/img717/1286/diehard3withavengeanceo.jpg&quot; rel=&quot;nofollow&quot; target=&quot;_NEW&quot;&gt;\nhttp://img717.imageshack.us/img717/1286/diehard3withavengeanceo.jpg&lt;/a&gt;\n &lt;a href=&quot;\nhttp://img94.imageshack.us/img94/3048/diehard4livefreeordieha.jpg&quot; rel=&quot;nofollow&quot; target=&quot;_NEW&quot;&gt;\nhttp://img94.imageshack.us/img94/3048/diehard4livefreeordieha.jpg&lt;/a&gt;\n\n\n\n\n\nPLEASE LET THE TORRENT SEED AND SHARE IT WITH ALL YOU KNOW!\n\nLet me know what I can do to be your trusted source of Handheld videos.\n &lt;a href=&quot;\nhttp://thepiratebay.se/user/on.off.on/&quot; rel=&quot;nofollow&quot; target=&quot;_NEW&quot;&gt;\nhttp://thepiratebay.se/user/on.off.on/&lt;/a&gt; -OOO","torrent":{"xt":"urn:btih:60d2463543c7b4fcda3b12afb113243ab61f35c3","amp;dn":"Die+Hard+Quadrilogy+%28PSP+%2B+Ipod+touch+%2B+Zune%29","amp;tr":["udp%3A%2F%2Ftracker.openbittorrent.com%3A80","udp%3A%2F%2Fopen.demonii.com%3A1337","udp%3A%2F%2Ftracker.coppersurfer.tk%3A6969","udp%3A%2F%2Fexodus.desync.com%3A6969"],"infoHash":"60d2463543c7b4fcda3b12afb113243ab61f35c3","infoHashBuffer":{"type":"Buffer","data":[96,210,70,53,67,199,180,252,218,59,18,175,177,19,36,58,182,31,53,195]},"announce":[],"urlList":[]}}